<?xml version="1.0" encoding="UTF-8" standalone="no"?>
<!-- Created with Inkscape (http://www.inkscape.org/) -->

<svg
   xmlns:dc="http://purl.org/dc/elements/1.1/"
   xmlns:cc="http://creativecommons.org/ns#"
   xmlns:rdf="http://www.w3.org/1999/02/22-rdf-syntax-ns#"
   xmlns:svg="http://www.w3.org/2000/svg"
   xmlns="http://www.w3.org/2000/svg"
   xmlns:sodipodi="http://sodipodi.sourceforge.net/DTD/sodipodi-0.dtd"
   xmlns:inkscape="http://www.inkscape.org/namespaces/inkscape"
   id="svg2"
   version="1.1"
   inkscape:version="0.48.4 r9939"
   width="1966.8136"
   height="1186.25"
   xml:space="preserve"
   sodipodi:docname="JGBC_logo_official.svg"><metadata
     id="metadata8"><rdf:RDF><cc:Work
         rdf:about=""><dc:format>image/svg+xml</dc:format><dc:type
           rdf:resource="http://purl.org/dc/dcmitype/StillImage" /><dc:title></dc:title></cc:Work></rdf:RDF></metadata><defs
     id="defs6"><clipPath
       clipPathUnits="userSpaceOnUse"
       id="clipPath16"><path
         d="m 0,3008.64 3008.64,0 L 3008.64,0 0,0 0,3008.64 z"
         id="path18"
         inkscape:connector-curvature="0" /></clipPath></defs><sodipodi:namedview
     pagecolor="#ffffff"
     bordercolor="#666666"
     borderopacity="1"
     objecttolerance="10"
     gridtolerance="10"
     guidetolerance="10"
     inkscape:pageopacity="0"
     inkscape:pageshadow="2"
     inkscape:window-width="640"
     inkscape:window-height="480"
     id="namedview4"
     showgrid="false"
     inkscape:zoom="0.17749117"
     inkscape:cx="1055.5605"
     inkscape:cy="715.85708"
     inkscape:window-x="0"
     inkscape:window-y="0"
     inkscape:window-maximized="0"
     inkscape:current-layer="g10"
     fit-margin-top="0"
     fit-margin-left="0"
     fit-margin-right="0"
     fit-margin-bottom="0" /><g
     id="g10"
     inkscape:groupmode="layer"
     inkscape:label="JGBC_logo_official"
     transform="matrix(1.25,0,0,-1.25,-48.382902,3684.2441)"><g
       id="g3200"><g
         id="g12"><g
           clip-path="url(#clipPath16)"
           id="g14"><g
             transform="translate(1122.4639,2937.3955)"
             id="g20"><path
               id="path22"
               style="fill:#faf3dd;fill-opacity:1;fill-rule:nonzero;stroke:none"
               d="m 0,0 -297.104,0 -296.963,0 c 0,0 -94.223,-247.086 -12.704,-397.95 0,0 59.287,-147.363 252.497,-222.001 0,0 24.392,-23.736 27.791,-44.303 7.698,-46.582 4.641,-93.663 -3.476,-119.551 -14.463,-46.129 -69.073,-72.44 -183.073,-116.904 l 0,-28.291 215.928,0 216.072,0 0,28.291 c -114,44.464 -168.611,70.856 -183.074,116.985 -8.117,25.888 -11.175,73.049 -3.477,119.631 3.399,20.568 27.802,44.466 27.802,44.466 C -46.57,-544.99 12.71,-397.95 12.71,-397.95 94.229,-247.086 0,0 0,0"
               inkscape:connector-curvature="0" /></g><g
             transform="translate(619.4317,2018.3953)"
             id="g24"><path
               id="path26"
               style="fill:#515154;fill-opacity:1;fill-rule:nonzero;stroke:none"
               d="m 0,0 412.001,0 0,11.463 c -54.748,21.452 -94.827,38.518 -124.029,56.134 -32.671,19.708 -50.74,39.658 -58.588,64.688 -7.931,25.296 -12.183,73.527 -3.801,124.253 3.822,23.127 27.935,47.3 30.672,49.98 0.971,0.951 2.125,1.694 3.393,2.183 97.441,37.642 159.329,94.338 194.087,135.273 37.738,44.443 52.592,80.468 52.737,80.827 0.138,0.34 0.299,0.681 0.473,1.004 40.714,75.346 35.093,176.88 23.208,248.787 C 519.566,838.649 502.244,891.244 496.011,909 l -580.025,0 c -6.232,-17.756 -23.553,-70.351 -34.138,-134.408 -11.884,-71.907 -17.503,-173.441 23.211,-248.787 0.179,-0.331 0.339,-0.672 0.48,-1.022 0.141,-0.348 14.996,-36.455 52.736,-80.977 34.76,-41.006 96.648,-97.788 194.087,-135.429 1.258,-0.485 2.404,-1.221 3.37,-2.161 2.738,-2.664 26.859,-26.696 30.684,-49.84 8.376,-50.689 4.126,-98.89 -3.801,-124.173 C 166.963,82.285 112.146,55.392 0,11.463 L 0,0 z M 422.001,-20 -10,-20 c -5.523,0 -10,4.478 -10,10 l 0,28.291 c 0,4.12 2.527,7.819 6.366,9.316 114.488,44.656 164.407,69.889 177.165,110.58 6.984,22.275 10.949,67.742 3.152,114.929 -2.178,13.178 -16.596,30.263 -23.514,37.376 -44.149,17.249 -84.963,39.686 -121.337,66.705 -29.574,21.968 -56.293,46.996 -79.417,74.392 -37.433,44.346 -53.096,80.134 -55.202,85.173 -19.141,35.619 -30.357,79.193 -33.34,129.522 -2.371,40.008 0.423,84.402 8.305,131.95 13.377,80.692 36.467,141.768 37.444,144.329 1.478,3.876 5.195,6.437 9.343,6.437 l 594.067,0 c 4.148,0 7.865,-2.561 9.344,-6.437 0.976,-2.56 24.068,-63.637 37.446,-144.329 7.883,-47.548 10.679,-91.942 8.307,-131.95 -2.981,-50.329 -14.199,-93.906 -33.339,-129.525 -2.104,-5.022 -17.766,-40.739 -55.203,-85.015 -23.123,-27.347 -49.842,-52.337 -79.415,-74.277 -36.367,-26.982 -77.175,-49.398 -121.316,-66.645 -6.924,-7.161 -21.36,-24.353 -23.541,-37.545 -7.803,-47.223 -3.835,-92.72 3.153,-115.008 12.783,-40.77 62.698,-66.014 177.166,-110.662 3.839,-1.497 6.367,-5.196 6.367,-9.316 l 0,-28.291 c 0,-5.522 -4.478,-10 -10,-10"
               inkscape:connector-curvature="0" /></g><g
             transform="translate(1096.1921,2937.3955)"
             id="g28"><path
               id="path30"
               style="fill:#ffa630;fill-opacity:1;fill-rule:nonzero;stroke:none"
               d="m 0,0 -539.232,0 c -20.275,-62 -80.352,-270.333 -19.057,-383.77 l 0.917,-1.311 0.763,-1.727 c 0.143,-0.348 14.765,-35.258 51.627,-78.352 49.121,-57.422 112.44,-101.334 188.198,-130.598 l 6.922,-2.654 c 0,0 22.245,-8.169 39.018,-8.169 18.003,0 39.175,8.19 39.175,8.19 l 6.914,2.673 c 75.757,29.265 139.076,73.222 188.197,130.644 36.862,43.095 51.485,78.092 51.571,78.298 l 0.762,1.901 0.974,1.105 C 78.049,-270.325 20.268,-62 0,0"
               inkscape:connector-curvature="0" /></g><g
             transform="translate(789.8278,2348.3533)"
             id="g32"><path
               id="path34"
               style="fill:#515154;fill-opacity:1;fill-rule:nonzero;stroke:none"
               d="m 0,0 c 1.138,-0.411 21.118,-7.539 35.52,-7.539 15.863,0 35.379,7.444 35.575,7.519 l 6.906,2.672 c 74.198,28.662 136.173,71.665 184.207,127.818 34.842,40.732 49.011,73.451 49.92,75.597 l 0.728,1.819 c 0.425,1.057 1.026,2.036 1.78,2.89 l 0.209,0.239 c 24.819,46.71 31.737,115.397 20.56,204.185 -9.094,72.249 -28.028,137.454 -36.337,163.842 l -524.651,0 c -9.574,-30.164 -28.2,-94.411 -37.49,-163.921 -11.915,-89.151 -5.294,-157.982 19.679,-204.598 l 0.583,-0.834 c 0.37,-0.53 0.688,-1.094 0.95,-1.685 l 0.763,-1.727 c 0.036,-0.082 0.071,-0.164 0.105,-0.247 0.125,-0.298 14.506,-34.182 49.975,-75.647 C -143.024,74.276 -81.05,31.288 -6.816,2.612 L 0,0 z m 35.52,-27.539 c -18.34,0 -41.489,8.425 -42.464,8.783 -0.044,0.016 -0.088,0.032 -0.132,0.049 l -6.923,2.653 c -77.382,29.893 -142.045,74.783 -192.217,133.437 -36.637,42.829 -51.99,78.016 -53.202,80.871 l -0.343,0.775 -0.36,0.515 c -0.219,0.313 -0.42,0.639 -0.601,0.975 -63.425,117.377 -1.99,329.434 18.35,391.631 1.345,4.111 5.18,6.892 9.505,6.892 l 539.231,0 c 4.325,0 8.161,-2.781 9.505,-6.893 14.33,-43.836 82.45,-268.734 16.042,-391.63 -0.318,-0.59 -0.695,-1.146 -1.125,-1.661 l -0.125,-0.311 c -0.022,-0.057 -0.046,-0.112 -0.069,-0.168 -0.628,-1.495 -15.896,-37.315 -53.186,-80.91 C 227.194,58.771 162.531,13.864 85.212,-16.003 l -6.909,-2.673 c -0.936,-0.361 -23.14,-8.863 -42.783,-8.863"
               inkscape:connector-curvature="0" /></g><g
             transform="translate(896.4323,2094.3953)"
             id="g36"><path
               id="path38"
               style="fill:#515154;fill-opacity:1;fill-rule:nonzero;stroke:none"
               d="m 0,0 -143,0 c -5.522,0 -10,4.478 -10,10 0,5.522 4.478,10 10,10 L 0,20 C 5.522,20 10,15.522 10,10 10,4.478 5.522,0 0,0"
               inkscape:connector-curvature="0" /></g><g
             transform="translate(856.4323,2268.3953)"
             id="g40"><path
               id="path42"
               style="fill:#515154;fill-opacity:1;fill-rule:nonzero;stroke:none"
               d="m 0,0 -62,0 c -5.522,0 -10,4.478 -10,10 0,5.522 4.478,10 10,10 L 0,20 C 5.522,20 10,15.522 10,10 10,4.478 5.522,0 0,0"
               inkscape:connector-curvature="0" /></g><g
             transform="translate(769.4323,2060.3953)"
             id="g44"><path
               id="path46"
               style="fill:#515154;fill-opacity:1;fill-rule:nonzero;stroke:none"
               d="m 0,0 -75.001,0 c -5.522,0 -10,4.478 -10,10 0,5.522 4.478,10 10,10 L 0,20 C 5.522,20 10,15.522 10,10 10,4.478 5.522,0 0,0"
               inkscape:connector-curvature="0" /></g><g
             transform="translate(956.4323,2060.3953)"
             id="g48"><path
               id="path50"
               style="fill:#515154;fill-opacity:1;fill-rule:nonzero;stroke:none"
               d="m 0,0 -75,0 c -5.522,0 -10,4.478 -10,10 0,5.522 4.478,10 10,10 L 0,20 C 5.522,20 10,15.522 10,10 10,4.478 5.522,0 0,0"
               inkscape:connector-curvature="0" /></g><g
             transform="translate(1041.4323,2026.3953)"
             id="g52"><path
               id="path54"
               style="fill:#515154;fill-opacity:1;fill-rule:nonzero;stroke:none"
               d="m 0,0 -432.001,0 c -5.522,0 -10,4.478 -10,10 0,5.522 4.478,10 10,10 L 0,20 C 5.522,20 10,15.522 10,10 10,4.478 5.522,0 0,0"
               inkscape:connector-curvature="0" /></g><g
             transform="translate(1534.4271,2542.7981)"
             id="g56"><path
               id="path58"
               style="fill:#e3ac0c;fill-opacity:1;fill-rule:nonzero;stroke:none"
               d="M 0,0 C 6.526,2.048 21.292,16.58 32.289,32.998 44.92,51.748 56.916,71.124 68.23,91.113 54.705,83.83 41.136,77.052 27.549,70.766 21.065,67.711 7.484,52.324 -3.442,36.895 -15.236,20.133 -27.562,3.913 -40.385,-11.753 -26.965,-8.253 -13.497,-4.34 0,0"
               inkscape:connector-curvature="0" /></g><g
             transform="translate(1490.0159,2574.4717)"
             id="g60"><path
               id="path62"
               style="fill:#e3ac0c;fill-opacity:1;fill-rule:nonzero;stroke:none"
               d="m 0,0 c -0.311,6.583 7.382,24.066 16.618,39.64 10.649,17.845 20.667,36.191 30.019,55.019 2.011,-14.343 3.649,-28.85 4.9,-43.504 C 52.179,44.158 45.069,25.069 35.072,9.14 24.319,-8.108 12.992,-24.887 1.121,-41.178 1.099,-27.339 0.722,-13.607 0,0"
               inkscape:connector-curvature="0" /></g><g
             transform="translate(1470.7886,2442.376)"
             id="g64"><path
               id="path66"
               style="fill:#e3ac0c;fill-opacity:1;fill-rule:nonzero;stroke:none"
               d="M 0,0 C 8.254,-0.405 26.137,10.477 39.309,24.861 54.411,41.265 68.982,58.334 82.975,76.054 65.059,73.547 47.27,71.665 29.642,70.387 21.21,69.715 4.541,58.107 -8.18,44.947 -21.937,30.629 -36.128,16.875 -50.716,3.695 -34.021,1.957 -17.108,0.719 0,0"
               inkscape:connector-curvature="0" /></g><g
             transform="translate(1409.9775,2499.4602)"
             id="g68"><path
               id="path70"
               style="fill:#e3ac0c;fill-opacity:1;fill-rule:nonzero;stroke:none"
               d="m 0,0 c -1.167,7.874 6.656,24.744 17.041,38.282 11.974,15.52 23.399,31.527 34.243,48 C 55.363,69.74 58.955,52.92 62.041,35.847 63.569,27.704 55.925,9.134 44.505,-4.984 32.219,-20.26 19.423,-35.069 6.148,-49.393 4.571,-32.733 2.517,-16.26 0,0"
               inkscape:connector-curvature="0" /></g><g
             transform="translate(1386.1249,2349.4729)"
             id="g72"><path
               id="path74"
               style="fill:#e3ac0c;fill-opacity:1;fill-rule:nonzero;stroke:none"
               d="M 0,0 C 10.213,-1.975 34.488,8.526 53.312,24.409 74.881,42.49 95.722,61.675 115.742,81.938 92.952,81.259 70.459,81.519 48.319,82.673 37.715,83.133 15.296,71.397 -2.594,57.292 -21.953,41.909 -41.893,27.454 -62.336,13.941 -41.992,8.569 -21.2,3.908 0,0"
               inkscape:connector-curvature="0" /></g><g
             transform="translate(1320.4392,2431.2859)"
             id="g76"><path
               id="path78"
               style="fill:#e3ac0c;fill-opacity:1;fill-rule:nonzero;stroke:none"
               d="M 0,0 C -0.165,9.921 12.038,29.161 26.695,43.936 43.605,60.865 59.754,78.6 75.077,97.1 78.176,76.183 80.469,54.9 81.924,33.306 82.705,23.003 70.545,1.238 54.15,-14.249 36.522,-31.02 18.183,-47.002 -0.81,-62.16 0.243,-41.233 0.506,-20.496 0,0"
               inkscape:connector-curvature="0" /></g><g
             transform="translate(1274.4708,2262.0818)"
             id="g80"><path
               id="path82"
               style="fill:#e3ac0c;fill-opacity:1;fill-rule:nonzero;stroke:none"
               d="m 0,0 c 11.569,-4.189 41.997,3.729 66.86,19.147 28.464,17.503 56.103,36.626 82.762,57.33 -26.849,2.68 -53.14,6.578 -78.787,11.616 C 58.532,90.383 30.537,80.517 7.289,67.316 -17.886,52.873 -43.697,39.774 -70.023,28.047 -47.428,17.812 -24.067,8.44 0,0"
               inkscape:connector-curvature="0" /></g><g
             transform="translate(1212.9496,2369.655)"
             id="g84"><path
               id="path86"
               style="fill:#e3ac0c;fill-opacity:1;fill-rule:nonzero;stroke:none"
               d="M 0,0 C 1.543,11.543 18.805,31.475 37.965,45.88 60.077,62.362 81.289,80.033 101.494,98.824 102.234,74.141 101.8,49.078 100.15,23.732 99.485,11.629 81.886,-11.624 60.183,-26.681 36.853,-43.009 12.68,-58.157 -12.238,-72.064 -7.031,-47.921 -2.959,-23.872 0,0"
               inkscape:connector-curvature="0" /></g><g
             transform="translate(1133.475,2186.4802)"
             id="g88"><path
               id="path90"
               style="fill:#e3ac0c;fill-opacity:1;fill-rule:nonzero;stroke:none"
               d="m 0,0 c 12.4,-7.089 49.046,-3.979 80.64,9.1 36.134,14.776 71.458,31.842 105.731,51.136 -30.4,7.56 -59.85,16.599 -88.236,26.99 C 84.487,92.051 50.804,85.931 21.786,75.394 -9.67,63.792 -41.72,54.067 -74.179,46.258 -50.627,29.855 -25.877,14.396 0,0"
               inkscape:connector-curvature="0" /></g><g
             transform="translate(1085.1052,2321.4524)"
             id="g92"><path
               id="path94"
               style="fill:#e3ac0c;fill-opacity:1;fill-rule:nonzero;stroke:none"
               d="m 0,0 c 4.004,12.807 27.156,31.909 51.203,44.516 27.755,14.38 54.544,30.447 80.202,48.095 C 128.417,64.469 123.801,36.032 117.514,7.454 114.677,-6.213 90.51,-29.487 62.945,-42.422 33.318,-56.493 2.79,-68.863 -28.48,-79.435 -17.455,-53.059 -7.967,-26.534 0,0"
               inkscape:connector-curvature="0" /></g><g
             transform="translate(971.192,2131.3828)"
             id="g96"><path
               id="path98"
               style="fill:#e3ac0c;fill-opacity:1;fill-rule:nonzero;stroke:none"
               d="M 0,0 C 13.028,-10.913 57.169,-14.995 97.3,-5.806 143.146,4.442 188.29,18.071 232.334,34.98 197.77,48.899 164.781,64.66 133.525,82.04 118.449,90.17 77.971,89.408 41.924,83.108 2.801,76.034 -36.777,71.683 -76.518,70.122 -52.858,45.697 -27.323,22.254 0,0"
               inkscape:connector-curvature="0" /></g><g
             transform="translate(944.4385,2298.5359)"
             id="g100"><path
               id="path102"
               style="fill:#e3ac0c;fill-opacity:1;fill-rule:nonzero;stroke:none"
               d="M 0,0 C 7.355,13.968 37.736,31.09 67.53,40.831 101.933,51.854 135.331,65.352 167.456,81.15 159.585,49.009 149.402,16.759 136.866,-15.331 131.107,-30.714 98.592,-53.243 63.829,-62.615 26.479,-72.901 -11.789,-80.64 -50.708,-85.669 -31.69,-57.668 -14.787,-29.031 0,0"
               inkscape:connector-curvature="0" /></g><g
             transform="translate(1503.0916,2473.6521)"
             id="g104"><path
               id="path106"
               style="fill:#515154;fill-opacity:1;fill-rule:nonzero;stroke:none"
               d="m 0,0 c -12.911,-14.099 -27.81,-21.788 -31.845,-21.787 l -0.059,0.002 c -9.661,0.406 -19.362,0.987 -29.014,1.736 9.306,8.847 18.431,17.921 27.265,27.117 13.977,14.459 27.887,22.265 31.678,22.568 10.071,0.73 20.227,1.66 30.38,2.782 C 19.191,21.371 9.688,10.524 0,0 m -69.78,-92.51 c -17.329,-14.621 -36.943,-22.408 -44.439,-22.408 -0.548,0 -0.843,0.046 -1.025,0.081 -13.785,2.542 -27.565,5.441 -41.169,8.662 14.586,10.176 28.902,20.705 42.734,31.696 17.719,13.97 37.269,23.222 44.412,23.222 l 0.124,0 c 14.659,-1 29.566,-1.027 44.374,-0.985 -14.544,-13.962 -29.617,-27.362 -45.011,-40.268 m -96.988,-91.84 c -19.938,-12.364 -42.239,-18.833 -53.961,-18.833 -2.846,0 -4.206,0.381 -4.749,0.578 -16.864,5.914 -33.602,12.379 -49.977,19.301 19.995,9.51 39.711,19.829 58.815,30.788 20.275,11.513 43.329,19.87 54.82,19.87 1.138,0 1.877,-0.093 2.203,-0.154 18.357,-3.605 37.09,-6.633 55.935,-9.044 -20.419,-15.023 -41.554,-29.266 -63.086,-42.506 m -125.842,-84.944 c -13.971,-5.783 -30.111,-9.855 -44.492,-11.394 -19.372,8.966 -38.328,18.57 -56.657,28.761 -0.035,0.02 -0.071,0.04 -0.107,0.059 -6.041,3.258 -14.845,5.401 -26.268,6.411 -0.273,0.18 -0.55,0.358 -0.824,0.538 25.794,6.886 51.408,15.005 76.371,24.211 21.637,7.858 45.321,12.936 60.341,12.936 5.508,0 8.341,-0.693 9.559,-1.116 21.447,-7.85 43.538,-14.937 65.932,-21.157 -27.266,-14.443 -55.375,-27.602 -83.855,-39.249 m -32.879,-37.446 c -36.375,-12.919 -73.682,-23.682 -111.231,-32.075 -13.829,-3.167 -28.91,-4.841 -43.611,-4.84 -24.13,0 -40.485,4.493 -45.468,8.668 -0.034,0.028 -0.067,0.056 -0.101,0.084 -21.178,17.249 -41.56,35.478 -60.798,54.37 32.929,2.12 65.932,6.149 98.358,12.013 17.474,3.054 35.764,4.737 51.501,4.737 3.886,0 7.351,-0.101 10.454,-0.273 16.918,-10.996 34.354,-21.516 52.11,-31.395 5.752,-3.269 14.247,-4.926 25.248,-4.926 l 10e-4,0 c 2.771,0 5.64,0.115 8.568,0.316 4.968,-2.265 9.952,-4.501 14.969,-6.679 m -224.734,127.244 c 4.935,9.265 30.024,25.71 61.999,36.163 28.102,9.005 55.844,19.761 82.72,32.062 -1.34,-4.881 -2.749,-9.761 -4.195,-14.638 -8.517,-7.843 -15.026,-16.006 -17.355,-23.456 -0.011,-0.034 -0.021,-0.069 -0.031,-0.104 -5.389,-17.949 -11.527,-35.944 -18.298,-53.763 -12.236,-9.484 -30.834,-19.643 -51.963,-25.34 -30.305,-8.346 -61.317,-14.997 -92.458,-19.836 14.411,22.455 27.686,45.562 39.581,68.912 m 187.809,63.377 c 21.837,11.314 43.27,23.775 63.939,37.168 -2.845,-21.237 -6.623,-42.602 -11.276,-63.754 -0.008,-0.036 -0.016,-0.073 -0.023,-0.11 -1.882,-9.067 -22.025,-30.406 -49.343,-43.226 -22.987,-10.916 -46.685,-20.855 -70.681,-29.65 0.127,0.325 0.248,0.652 0.374,0.977 8.108,6.974 13.983,14.179 16.508,20.868 7.376,18.885 13.998,38.044 19.851,57.287 8.132,6.873 18.777,14.214 30.651,20.44 m 115.915,50.385 c 16.702,12.45 33.019,25.678 48.694,39.47 0.048,-17.71 -0.511,-35.611 -1.673,-53.479 -0.415,-7.543 -14.943,-28.593 -35.928,-43.153 -17.294,-12.103 -35.222,-23.65 -53.493,-34.46 3.296,17.401 6.038,34.863 8.173,52.1 0.97,7.251 15.278,25.275 34.227,39.522 m 73.346,23.526 c -0.089,5.32 8.975,22.003 23.916,37.063 12.052,12.066 23.799,24.626 35.081,37.506 1.68,-13.936 3.004,-28.032 3.955,-42.14 0.464,-6.122 -9.2,-25.17 -24.849,-39.953 -12.29,-11.693 -25.058,-23.108 -38.125,-34.089 0.353,13.954 0.36,27.891 0.022,41.613 M -68.55,58.287 c 7.669,9.942 15.157,20.142 22.383,30.487 2.086,-9.563 4.011,-19.213 5.757,-28.871 0.731,-3.974 -4.63,-19.562 -15.602,-33.125 -7.675,-9.542 -15.63,-18.991 -23.773,-28.241 -1.156,9.633 -2.47,19.222 -3.932,28.663 -0.468,3.34 4.334,16.967 15.167,31.087 m 80.249,77.304 c 5.531,9.267 10.914,18.71 16.111,28.259 0.431,-4.242 0.828,-8.487 1.19,-12.727 0.243,-3.89 -5.287,-20.557 -15.066,-36.138 C 8.468,106.216 2.8,97.494 -3.026,88.884 c -0.155,4.134 -0.341,8.257 -0.558,12.356 0.034,3.573 5.487,17.831 15.283,34.351 M -21.4,58.597 c 10e-4,0.024 10e-4,0.047 10e-4,0.07 0.003,-0.019 0.005,-0.039 0.008,-0.059 -0.003,-0.003 -0.006,-0.007 -0.009,-0.011 M 55.732,107.43 C 44.764,91.056 31.943,79.524 28.428,78.19 24.487,76.923 20.523,75.685 16.549,74.48 c 6.542,8.585 12.925,17.297 19.097,26.07 12.253,17.303 23.913,29.176 27.228,30.74 3.949,1.827 7.903,3.7 11.853,5.611 -6.149,-9.974 -12.496,-19.822 -18.995,-29.471 m 48.923,3.228 c -4.221,3.121 -10.168,2.228 -13.287,-1.989 C 77.479,89.887 62.732,71.543 47.379,53.918 30.514,51.601 13.458,49.804 -3.416,48.581 -3.96,48.538 -4.521,48.459 -5.091,48.365 c 0.084,0.107 0.167,0.215 0.25,0.322 13.039,3.435 26.174,7.264 39.021,11.395 10.449,3.279 27.036,21.394 37.324,36.754 12.791,18.988 25.014,38.752 36.329,58.743 2.085,3.683 1.481,8.301 -1.479,11.325 -2.961,3.024 -7.565,3.725 -11.292,1.719 -9.869,-5.313 -19.916,-10.432 -30.008,-15.292 11.896,21.009 22.962,42.599 33.142,64.74 2.193,4.767 0.105,10.408 -4.662,12.6 -4.768,2.194 -10.408,0.104 -12.6,-4.663 C 70.574,203.477 59.31,181.62 47.22,160.45 c -1.155,12.165 -2.569,24.356 -4.25,36.348 -0.578,4.125 -3.776,7.392 -7.887,8.059 -4.116,0.668 -8.177,-1.422 -10.03,-5.152 -9.16,-18.442 -19.141,-36.736 -29.682,-54.399 -3.103,-5.232 -18.549,-31.987 -17.933,-44.99 0.683,-12.878 1.044,-25.978 1.094,-38.972 -0.057,0.686 -0.136,1.358 -0.257,2.001 -2.956,16.356 -6.441,32.736 -10.34,48.743 10.088,17.844 19.536,36.154 28.189,54.643 2.224,4.752 0.174,10.407 -4.578,12.631 -4.747,2.222 -10.406,0.175 -12.631,-4.577 -11.183,-23.896 -23.724,-47.487 -37.276,-70.118 -0.107,-0.178 -0.195,-0.361 -0.288,-0.542 -8.005,-11.63 -16.36,-23.104 -24.96,-34.252 -4.058,-5.29 -9.4,-13.391 -13.406,-21.895 -0.314,2.285 -0.642,4.563 -0.975,6.837 14.2,20.751 27.441,42.241 39.491,64.135 2.53,4.596 0.855,10.374 -3.741,12.904 -4.598,2.531 -10.375,0.854 -12.904,-3.742 -15.469,-28.105 -32.939,-55.536 -51.926,-81.529 -0.11,-0.151 -0.204,-0.308 -0.304,-0.462 -11.338,-13.002 -23.165,-25.685 -35.328,-37.861 -5.613,-5.658 -11.373,-12.479 -16.297,-19.545 -0.036,1.694 -0.073,3.388 -0.121,5.077 19.501,21.515 37.805,44.162 54.597,67.585 3.058,4.264 2.08,10.199 -2.185,13.256 -4.264,3.056 -10.198,2.079 -13.256,-2.186 -21.393,-29.838 -45.295,-58.394 -71.044,-84.875 -0.18,-0.186 -0.345,-0.381 -0.507,-0.577 -14.939,-13.09 -30.463,-25.662 -46.371,-37.518 -6.731,-5.061 -13.772,-11.218 -20.121,-17.773 0.219,1.887 0.436,3.773 0.641,5.656 25.96,20.302 50.605,42.305 73.507,65.664 3.672,3.747 3.613,9.762 -0.134,13.434 -3.747,3.675 -9.762,3.614 -13.435,-0.133 -28.914,-29.493 -60.674,-56.78 -94.396,-81.103 -0.308,-0.222 -0.593,-0.463 -0.866,-0.713 -18.956,-12.116 -38.543,-23.437 -58.505,-33.78 -4.419,-2.316 -8.99,-4.951 -13.532,-7.816 0.586,2.247 1.148,4.494 1.712,6.741 34.317,17.065 67.328,36.783 98.448,58.856 4.279,3.035 5.288,8.965 2.252,13.245 -3.036,4.279 -8.964,5.285 -13.245,2.253 -38.748,-27.483 -80.495,-51.24 -124.082,-70.614 -0.573,-0.255 -1.107,-0.563 -1.602,-0.91 -23.738,-10.527 -48.126,-19.824 -72.831,-27.741 -28.542,-9.33 -63.555,-27.528 -72.984,-45.432 -0.02,-0.038 -0.04,-0.078 -0.059,-0.116 -14.699,-28.859 -31.556,-57.337 -50.101,-84.643 -0.612,-0.901 -1.032,-1.887 -1.302,-2.903 -119.383,-8.853 -242.255,7.853 -360.561,53.405 -4.898,1.887 -10.393,-0.555 -12.279,-5.452 -1.885,-4.896 0.556,-10.394 5.452,-12.279 99.23,-38.207 203.168,-57.284 307.093,-57.284 20.897,0 41.794,0.778 62.651,2.322 0.278,-0.392 0.583,-0.767 0.924,-1.119 23.999,-24.774 50.004,-48.408 77.295,-70.639 14.143,-11.784 44.995,-12.86 57.614,-12.86 l 0.003,0 c 16.105,0 32.652,1.64 47.802,5.109 33.912,7.581 67.649,16.972 100.715,28.205 0.639,0.081 1.28,0.17 1.913,0.388 61.033,20.978 120.238,48.138 175.97,80.778 4.528,2.652 6.048,8.458 3.397,12.986 -2.652,4.527 -8.471,6.042 -12.998,3.39 -43.378,-25.403 -88.906,-47.426 -135.768,-65.722 -2.446,0.997 -4.89,1.997 -7.327,3.016 7.264,2 14.443,4.428 21.244,7.244 26.726,10.928 53.149,23.178 78.883,36.552 0.427,0.131 0.851,0.281 1.268,0.476 49.026,22.993 96.427,50.394 140.886,81.443 4.302,3.005 5.354,8.926 2.35,13.228 -3.003,4.301 -8.925,5.355 -13.229,2.35 -34.131,-23.837 -70.037,-45.467 -107.085,-64.557 -2.145,0.537 -4.286,1.09 -6.427,1.644 10.791,3.769 21.925,8.994 31.951,15.21 21.047,12.944 41.736,26.848 61.775,41.486 0.298,0.149 0.596,0.295 0.883,0.478 39.285,25.123 77.016,53.486 112.144,84.304 3.945,3.46 4.337,9.463 0.878,13.406 -3.461,3.946 -9.464,4.339 -13.407,0.877 -26.717,-23.438 -54.975,-45.419 -84.284,-65.597 -1.94,0.196 -3.879,0.407 -5.819,0.616 9.208,4.651 18.692,10.833 27.063,17.896 15.905,13.335 31.479,27.339 46.506,41.79 0.243,0.168 0.482,0.347 0.713,0.54 30.201,25.246 59.079,52.783 85.831,81.849 3.553,3.861 3.304,9.871 -0.557,13.424 -3.861,3.552 -9.87,3.303 -13.424,-0.557 C 41.337,8.068 19.912,-12.958 -2.381,-32.764 c -2.637,-0.076 -5.286,-0.127 -7.935,-0.178 8.829,5.397 17.695,12.867 24.311,20.092 11.111,12.069 21.987,24.568 32.481,37.305 0.202,0.186 0.403,0.376 0.592,0.582 20.98,22.91 41.025,47.247 59.578,72.334 3.119,4.219 2.228,10.167 -1.991,13.287"
               inkscape:connector-curvature="0" /></g><g
             transform="translate(116.4365,2542.7981)"
             id="g108"><path
               id="path110"
               style="fill:#e3ac0c;fill-opacity:1;fill-rule:nonzero;stroke:none"
               d="M 0,0 C -6.526,2.048 -21.293,16.58 -32.289,32.998 -44.92,51.748 -56.916,71.124 -68.23,91.113 -54.705,83.83 -41.136,77.052 -27.549,70.766 -21.065,67.711 -7.484,52.324 3.442,36.895 15.236,20.133 27.562,3.913 40.385,-11.753 26.965,-8.253 13.497,-4.34 0,0"
               inkscape:connector-curvature="0" /></g><g
             transform="translate(160.8477,2574.4717)"
             id="g112"><path
               id="path114"
               style="fill:#e3ac0c;fill-opacity:1;fill-rule:nonzero;stroke:none"
               d="m 0,0 c 0.311,6.583 -7.382,24.066 -16.618,39.64 -10.649,17.845 -20.667,36.191 -30.019,55.019 -2.011,-14.343 -3.649,-28.85 -4.9,-43.504 -0.642,-6.997 6.469,-26.086 16.465,-42.015 10.753,-17.248 22.08,-34.027 33.951,-50.318 C -1.099,-27.339 -0.722,-13.607 0,0"
               inkscape:connector-curvature="0" /></g><g
             transform="translate(180.0751,2442.376)"
             id="g116"><path
               id="path118"
               style="fill:#e3ac0c;fill-opacity:1;fill-rule:nonzero;stroke:none"
               d="M 0,0 C -8.254,-0.405 -26.137,10.477 -39.309,24.861 -54.411,41.265 -68.982,58.334 -82.975,76.054 -65.059,73.547 -47.27,71.665 -29.642,70.387 -21.21,69.715 -4.541,58.107 8.18,44.947 21.937,30.629 36.128,16.875 50.716,3.695 34.021,1.957 17.108,0.719 0,0"
               inkscape:connector-curvature="0" /></g><g
             transform="translate(240.8861,2499.4602)"
             id="g120"><path
               id="path122"
               style="fill:#e3ac0c;fill-opacity:1;fill-rule:nonzero;stroke:none"
               d="m 0,0 c 1.167,7.874 -6.656,24.744 -17.041,38.282 -11.974,15.52 -23.399,31.527 -34.243,48 C -55.363,69.74 -58.955,52.92 -62.041,35.847 -63.569,27.704 -55.925,9.134 -44.505,-4.984 -32.219,-20.26 -19.423,-35.069 -6.148,-49.393 -4.571,-32.733 -2.517,-16.26 0,0"
               inkscape:connector-curvature="0" /></g><g
             transform="translate(264.7387,2349.4729)"
             id="g124"><path
               id="path126"
               style="fill:#e3ac0c;fill-opacity:1;fill-rule:nonzero;stroke:none"
               d="m 0,0 c -10.213,-1.975 -34.488,8.526 -53.312,24.409 -21.569,18.081 -42.41,37.266 -62.43,57.529 22.79,-0.679 45.283,-0.419 67.423,0.735 10.604,0.46 33.023,-11.276 50.913,-25.381 C 21.954,41.909 41.893,27.454 62.336,13.941 41.992,8.569 21.2,3.908 0,0"
               inkscape:connector-curvature="0" /></g><g
             transform="translate(330.4244,2431.2859)"
             id="g128"><path
               id="path130"
               style="fill:#e3ac0c;fill-opacity:1;fill-rule:nonzero;stroke:none"
               d="M 0,0 C 0.165,9.921 -12.038,29.161 -26.695,43.936 -43.605,60.865 -59.754,78.6 -75.077,97.1 -78.176,76.183 -80.469,54.9 -81.924,33.306 -82.705,23.003 -70.545,1.238 -54.15,-14.249 -36.522,-31.02 -18.183,-47.002 0.81,-62.16 -0.243,-41.233 -0.506,-20.496 0,0"
               inkscape:connector-curvature="0" /></g><g
             transform="translate(376.3928,2262.0818)"
             id="g132"><path
               id="path134"
               style="fill:#e3ac0c;fill-opacity:1;fill-rule:nonzero;stroke:none"
               d="m 0,0 c -11.569,-4.189 -41.997,3.729 -66.86,19.147 -28.464,17.503 -56.103,36.626 -82.762,57.33 26.849,2.68 53.14,6.578 78.787,11.616 12.303,2.29 40.298,-7.576 63.546,-20.777 C 17.886,52.873 43.697,39.774 70.023,28.047 47.428,17.812 24.067,8.44 0,0"
               inkscape:connector-curvature="0" /></g><g
             transform="translate(437.914,2369.655)"
             id="g136"><path
               id="path138"
               style="fill:#e3ac0c;fill-opacity:1;fill-rule:nonzero;stroke:none"
               d="m 0,0 c -1.543,11.543 -18.805,31.475 -37.965,45.88 -22.112,16.482 -43.324,34.153 -63.529,52.944 -0.74,-24.683 -0.305,-49.746 1.344,-75.092 0.665,-12.103 18.264,-35.356 39.967,-50.413 23.33,-16.328 47.503,-31.476 72.421,-45.383 C 7.031,-47.921 2.959,-23.872 0,0"
               inkscape:connector-curvature="0" /></g><g
             transform="translate(517.3886,2186.4802)"
             id="g140"><path
               id="path142"
               style="fill:#e3ac0c;fill-opacity:1;fill-rule:nonzero;stroke:none"
               d="m 0,0 c -12.399,-7.089 -49.046,-3.979 -80.64,9.1 -36.134,14.776 -71.458,31.842 -105.731,51.136 30.401,7.56 59.85,16.599 88.236,26.99 13.648,4.825 47.331,-1.295 76.349,-11.832 C 9.67,63.792 41.72,54.067 74.179,46.258 50.627,29.855 25.877,14.396 0,0"
               inkscape:connector-curvature="0" /></g><g
             transform="translate(565.7584,2321.4524)"
             id="g144"><path
               id="path146"
               style="fill:#e3ac0c;fill-opacity:1;fill-rule:nonzero;stroke:none"
               d="m 0,0 c -4.004,12.807 -27.156,31.909 -51.203,44.516 -27.755,14.38 -54.544,30.447 -80.202,48.095 2.988,-28.142 7.604,-56.579 13.892,-85.157 2.836,-13.667 27.003,-36.941 54.568,-49.876 C -33.318,-56.493 -2.79,-68.863 28.48,-79.435 17.455,-53.059 7.967,-26.534 0,0"
               inkscape:connector-curvature="0" /></g><g
             transform="translate(679.6718,2131.3828)"
             id="g148"><path
               id="path150"
               style="fill:#e3ac0c;fill-opacity:1;fill-rule:nonzero;stroke:none"
               d="m 0,0 c -13.028,-10.913 -57.169,-14.995 -97.3,-5.806 -45.846,10.248 -90.99,23.877 -135.034,40.786 34.563,13.919 67.553,29.68 98.809,47.06 15.076,8.13 55.554,7.368 91.601,1.068 C -2.802,76.034 36.777,71.683 76.518,70.122 52.858,45.697 27.323,22.254 0,0"
               inkscape:connector-curvature="0" /></g><g
             transform="translate(706.4251,2298.5359)"
             id="g152"><path
               id="path154"
               style="fill:#e3ac0c;fill-opacity:1;fill-rule:nonzero;stroke:none"
               d="m 0,0 c -7.355,13.968 -37.736,31.09 -67.53,40.831 -34.403,11.023 -67.801,24.521 -99.926,40.319 7.871,-32.141 18.054,-64.391 30.591,-96.481 5.758,-15.383 38.273,-37.912 73.036,-47.284 C -26.479,-72.901 11.789,-80.64 50.708,-85.669 31.69,-57.668 14.787,-29.031 0,0"
               inkscape:connector-curvature="0" /></g><g
             transform="translate(119.3669,2506.0701)"
             id="g156"><path
               id="path158"
               style="fill:#515154;fill-opacity:1;fill-rule:nonzero;stroke:none"
               d="m 0,0 c 10.153,-1.122 20.309,-2.052 30.38,-2.782 3.791,-0.302 17.701,-8.109 31.679,-22.568 8.834,-9.196 17.959,-18.27 27.264,-27.117 -9.652,-0.749 -19.353,-1.33 -29.014,-1.736 L 60.25,-54.205 C 56.215,-54.206 41.316,-46.517 28.405,-32.418 18.718,-21.894 9.214,-11.047 0,0 m 53.174,-84.66 c 14.808,-0.042 29.716,-0.015 44.374,0.985 l 0.124,0 c 7.143,0 26.693,-9.252 44.412,-23.222 13.832,-10.991 28.148,-21.52 42.734,-31.696 -13.604,-3.22 -27.384,-6.12 -41.169,-8.662 -0.182,-0.035 -0.477,-0.081 -1.025,-0.081 -7.496,0 -27.109,7.787 -44.438,22.409 -15.395,12.906 -30.468,26.305 -45.012,40.267 m 78.913,-89.601 c 18.846,2.41 37.578,5.438 55.935,9.043 0.327,0.061 1.065,0.154 2.204,0.154 11.49,0 34.544,-8.357 54.819,-19.87 19.104,-10.959 38.82,-21.278 58.815,-30.788 -16.375,-6.921 -33.113,-13.387 -49.977,-19.301 -0.543,-0.196 -1.903,-0.578 -4.748,-0.578 -11.723,0 -34.024,6.469 -53.962,18.833 -21.531,13.24 -42.667,27.483 -63.086,42.507 m 105.073,-88.202 c 22.395,6.22 44.486,13.307 65.933,21.157 1.217,0.423 4.05,1.116 9.558,1.116 15.02,0 38.704,-5.078 60.341,-12.936 24.963,-9.206 50.577,-17.325 76.371,-24.211 -0.273,-0.18 -0.55,-0.358 -0.824,-0.538 -11.423,-1.01 -20.227,-3.153 -26.268,-6.411 -0.036,-0.019 -0.072,-0.039 -0.107,-0.058 -18.328,-10.192 -37.284,-19.796 -56.657,-28.762 -14.381,1.539 -30.52,5.611 -44.491,11.394 -28.481,11.647 -56.59,24.806 -83.856,39.249 m 131.703,-70.016 c 2.928,-0.201 5.797,-0.316 8.569,-0.316 l 10e-4,0 c 11,0 19.495,1.657 25.248,4.926 17.755,9.879 35.191,20.4 52.109,31.395 3.103,0.172 6.568,0.273 10.454,0.273 15.737,0 34.027,-1.683 51.501,-4.736 32.426,-5.865 65.429,-9.894 98.359,-12.014 -19.239,-18.892 -39.621,-37.121 -60.798,-54.37 -0.035,-0.028 -0.068,-0.056 -0.102,-0.084 -4.983,-4.175 -21.338,-8.668 -45.468,-8.668 -14.701,-0.001 -29.782,1.673 -43.611,4.84 -37.549,8.393 -74.855,19.156 -111.23,32.075 5.016,2.178 10.001,4.414 14.968,6.679 m 249.346,51.653 c -31.141,4.839 -62.152,11.49 -92.458,19.836 -21.129,5.697 -39.726,15.856 -51.963,25.34 -6.771,17.819 -12.908,35.814 -18.298,53.764 -0.01,0.034 -0.02,0.069 -0.031,0.103 -2.329,7.45 -8.838,15.613 -17.355,23.456 -1.445,4.877 -2.855,9.757 -4.195,14.639 26.876,-12.302 54.618,-23.058 82.72,-32.063 31.975,-10.453 57.064,-26.898 61.999,-36.163 11.895,-23.35 25.17,-46.457 39.581,-68.912 M 421.47,-168.977 c 5.853,-19.242 12.475,-38.402 19.851,-57.287 2.525,-6.689 8.401,-13.893 16.508,-20.868 0.126,-0.325 0.248,-0.652 0.374,-0.977 -23.996,8.795 -47.694,18.734 -70.681,29.65 -27.318,12.82 -47.46,34.159 -49.342,43.226 -0.008,0.037 -0.016,0.074 -0.024,0.11 -4.653,21.152 -8.43,42.517 -11.276,63.754 20.669,-13.392 42.102,-25.854 63.939,-37.168 11.874,-6.226 22.519,-13.567 30.651,-20.44 m -112.339,31.303 c 2.136,-17.237 4.877,-34.699 8.174,-52.1 -18.272,10.81 -36.2,22.357 -53.493,34.461 -20.986,14.559 -35.514,35.609 -35.929,43.152 -1.162,17.868 -1.721,35.769 -1.673,53.479 15.676,-13.792 31.992,-27.02 48.694,-39.47 18.95,-14.247 33.257,-32.271 34.227,-39.522 m -107.551,21.435 c -13.066,10.981 -25.835,22.396 -38.125,34.089 -15.648,14.783 -25.312,33.831 -24.849,39.953 0.952,14.108 2.275,28.204 3.956,42.14 11.281,-12.88 23.028,-25.44 35.081,-37.506 14.94,-15.06 24.004,-31.743 23.915,-37.063 -0.338,-13.722 -0.331,-27.659 0.022,-41.613 M 112.122,-5.218 c -1.462,-9.441 -2.776,-19.03 -3.932,-28.663 -8.143,9.25 -16.098,18.699 -23.773,28.241 C 73.445,7.923 68.084,23.511 68.815,27.485 70.562,37.143 72.486,46.793 74.572,56.356 81.798,46.011 89.286,35.812 96.955,25.869 107.788,11.75 112.59,-1.878 112.122,-5.218 M 31.989,68.823 c -0.217,-4.1 -0.403,-8.223 -0.557,-12.357 -5.827,8.61 -11.495,17.332 -16.961,26.101 -9.779,15.581 -15.309,32.248 -15.066,36.138 0.363,4.24 0.759,8.485 1.19,12.727 5.197,-9.549 10.58,-18.992 16.111,-28.259 9.796,-16.52 15.249,-30.778 15.283,-34.35 M 49.797,26.19 c 0.002,0.02 0.005,0.04 0.007,0.06 0,-0.024 10e-4,-0.047 10e-4,-0.071 -0.003,0.004 -0.006,0.008 -0.008,0.011 m -96.119,78.293 c 3.95,-1.911 7.904,-3.784 11.853,-5.611 3.316,-1.564 14.975,-13.437 27.228,-30.74 6.173,-8.773 12.555,-17.485 19.097,-26.07 -3.974,1.205 -7.938,2.443 -11.878,3.71 -3.516,1.335 -16.336,12.866 -27.305,29.24 -6.499,9.649 -12.846,19.498 -18.995,29.471 M -78.24,64.953 c 18.552,-25.087 38.597,-49.424 59.577,-72.334 0.189,-0.206 0.39,-0.396 0.593,-0.582 10.493,-12.737 21.369,-25.236 32.48,-37.305 6.616,-7.225 15.482,-14.695 24.312,-20.092 -2.649,0.051 -5.299,0.102 -7.936,0.178 -22.292,19.807 -43.718,40.832 -63.899,62.759 -3.554,3.86 -9.563,4.11 -13.424,0.557 -3.86,-3.553 -4.109,-9.563 -0.557,-13.424 26.752,-29.066 55.63,-56.603 85.831,-81.849 0.232,-0.193 0.47,-0.372 0.714,-0.54 15.027,-14.451 30.6,-28.455 46.505,-41.79 8.372,-7.063 17.856,-13.245 27.063,-17.896 -1.94,-0.209 -3.879,-0.42 -5.819,-0.615 -29.309,20.178 -57.567,42.158 -84.284,65.596 -3.942,3.462 -9.946,3.069 -13.406,-0.876 -3.46,-3.944 -3.068,-9.947 0.877,-13.407 35.129,-30.818 72.859,-59.181 112.144,-84.304 0.287,-0.183 0.585,-0.329 0.883,-0.477 20.039,-14.639 40.728,-28.543 61.775,-41.487 10.026,-6.216 21.161,-11.441 31.951,-15.21 -2.141,-0.554 -4.282,-1.107 -6.426,-1.644 -37.049,19.09 -72.955,40.72 -107.086,64.557 -4.304,3.005 -10.226,1.951 -13.229,-2.35 -3.003,-4.302 -1.952,-10.223 2.35,-13.228 44.459,-31.049 91.86,-58.45 140.887,-81.443 0.416,-0.195 0.84,-0.345 1.267,-0.476 25.734,-13.374 52.157,-25.624 78.883,-36.552 6.801,-2.816 13.98,-5.244 21.244,-7.244 -2.436,-1.019 -4.881,-2.019 -7.327,-3.016 -46.862,18.296 -92.39,40.319 -135.767,65.722 -4.528,2.652 -10.347,1.137 -12.998,-3.39 -2.652,-4.528 -1.131,-10.334 3.396,-12.986 55.732,-32.639 114.937,-59.8 175.971,-80.778 0.633,-0.218 1.273,-0.307 1.913,-0.388 33.065,-11.233 66.803,-20.624 100.715,-28.205 15.149,-3.469 31.696,-5.109 47.801,-5.109 l 0.003,0 c 12.619,0 43.471,1.076 57.615,12.86 27.29,22.231 53.295,45.865 77.294,70.639 0.341,0.352 0.646,0.728 0.924,1.119 20.857,-1.544 41.754,-2.322 62.651,-2.322 103.925,0 207.863,19.077 307.093,57.285 4.896,1.884 7.337,7.382 5.452,12.278 -1.886,4.897 -7.381,7.339 -12.279,5.452 -118.306,-45.552 -241.178,-62.258 -360.56,-53.405 -0.271,1.016 -0.691,2.002 -1.303,2.903 -18.545,27.306 -35.401,55.784 -50.101,84.643 -0.019,0.038 -0.039,0.078 -0.059,0.116 -9.429,17.904 -44.442,36.102 -72.984,45.432 -24.704,7.917 -49.093,17.214 -72.831,27.741 -0.495,0.347 -1.028,0.655 -1.602,0.91 -43.587,19.374 -85.334,43.131 -124.082,70.614 -4.28,3.032 -10.209,2.026 -13.245,-2.253 -3.035,-4.28 -2.027,-10.21 2.253,-13.245 31.12,-22.072 64.13,-41.79 98.447,-58.856 0.564,-2.246 1.126,-4.494 1.712,-6.741 -4.542,2.865 -9.113,5.5 -13.532,7.817 -19.961,10.342 -39.549,21.663 -58.505,33.779 -0.273,0.25 -0.558,0.491 -0.866,0.713 -33.722,24.323 -65.482,51.61 -94.396,81.103 -3.673,3.747 -9.688,3.808 -13.435,0.134 -3.747,-3.673 -3.806,-9.688 -0.133,-13.435 22.901,-23.359 47.546,-45.362 73.506,-65.664 0.206,-1.883 0.422,-3.769 0.642,-5.656 -6.35,6.555 -13.391,12.712 -20.122,17.773 -15.908,11.857 -31.432,24.428 -46.371,37.518 -0.162,0.196 -0.326,0.392 -0.507,0.577 -25.749,26.481 -49.651,55.037 -71.044,84.875 -3.057,4.265 -8.992,5.242 -13.256,2.186 -4.264,-3.057 -5.243,-8.992 -2.185,-13.256 16.792,-23.423 35.096,-46.07 54.597,-67.584 -0.048,-1.69 -0.084,-3.384 -0.121,-5.078 -4.924,7.066 -10.684,13.887 -16.297,19.546 -12.163,12.175 -23.99,24.858 -35.328,37.86 -0.1,0.154 -0.194,0.311 -0.303,0.462 -18.988,25.993 -36.457,53.424 -51.927,81.529 -2.528,4.596 -8.306,6.274 -12.903,3.742 -4.597,-2.53 -6.272,-8.308 -3.742,-12.904 12.05,-21.894 25.291,-43.384 39.492,-64.135 -0.333,-2.274 -0.662,-4.552 -0.976,-6.837 -4.005,8.504 -9.348,16.606 -13.405,21.895 -8.601,11.149 -16.956,22.622 -24.96,34.253 -0.094,0.18 -0.182,0.363 -0.288,0.541 -13.553,22.631 -26.094,46.222 -37.277,70.118 -2.224,4.752 -7.884,6.8 -12.631,4.577 -4.752,-2.224 -6.801,-7.879 -4.578,-12.631 C 40.934,115.824 50.382,97.514 60.47,79.67 56.571,63.663 53.086,47.283 50.13,30.927 c -0.121,-0.643 -0.2,-1.315 -0.257,-2.001 0.05,12.994 0.411,26.095 1.094,38.972 0.616,13.003 -14.83,39.758 -17.933,44.99 -10.541,17.663 -20.522,35.957 -29.681,54.399 -1.854,3.73 -5.915,5.82 -10.031,5.152 -4.111,-0.667 -7.308,-3.934 -7.886,-8.059 -1.681,-11.992 -3.096,-24.183 -4.251,-36.348 -12.09,21.17 -23.353,43.027 -33.713,65.558 -2.193,4.767 -7.832,6.857 -12.601,4.663 -4.767,-2.192 -6.854,-7.833 -4.662,-12.6 10.18,-22.141 21.246,-43.731 33.143,-64.74 -10.093,4.86 -20.14,9.979 -30.008,15.292 -3.728,2.006 -8.332,1.305 -11.292,-1.719 -2.961,-3.024 -3.565,-7.642 -1.48,-11.325 11.316,-19.991 23.538,-39.755 36.329,-58.743 10.288,-15.36 26.875,-33.475 37.325,-36.754 12.846,-4.131 25.982,-7.96 39.02,-11.395 0.083,-0.107 0.167,-0.215 0.25,-0.322 -0.569,0.094 -1.131,0.173 -1.675,0.216 -16.873,1.223 -33.929,3.02 -50.795,5.337 -15.353,17.625 -30.1,35.969 -43.989,54.751 -3.119,4.218 -9.066,5.11 -13.287,1.989 -4.219,-3.12 -5.109,-9.068 -1.99,-13.287"
               inkscape:connector-curvature="0" /></g><g
             transform="translate(463.392,2572.9177)"
             id="g160"><path
               id="path162"
               style="fill:#929988;fill-opacity:1;fill-rule:nonzero;stroke:none"
               d="m 0,0 c -0.062,0 -0.126,0.007 -0.196,0.023 l -114.052,24.978 c -0.409,0.089 -0.686,0.471 -0.645,0.887 l 8.33,84.608 c 0.042,0.424 0.395,0.744 0.821,0.744 l 105.722,0 c 0.455,0 0.825,-0.37 0.825,-0.825 l 0,-109.586 C 0.805,0.288 0.337,0 0,0"
               inkscape:connector-curvature="0" /></g><g
             transform="translate(463.3721,2692.658)"
             id="g164"><path
               id="path166"
               style="fill:#515154;fill-opacity:1;fill-rule:nonzero;stroke:none"
               d="m 0,0 -105.722,0 c -4.797,0 -8.811,-3.638 -9.281,-8.412 l -8.329,-84.608 c -0.463,-4.704 2.667,-9.011 7.285,-10.023 l 114.052,-24.978 c 0.679,-0.148 1.353,-0.219 2.015,-0.219 5.01,0 9.305,4.069 9.305,9.329 l 0,109.586 C 9.325,-4.175 5.15,0 0,0 m -7.675,-17 0,-92.374 -98.07,21.478 6.979,70.896 91.091,0"
               inkscape:connector-curvature="0" /></g><g
             transform="translate(1188.6752,2572.7927)"
             id="g168"><path
               id="path170"
               style="fill:#929988;fill-opacity:1;fill-rule:nonzero;stroke:none"
               d="m 0,0 c -0.338,0 -0.806,0.288 -0.806,0.829 l 0,109.586 c 0,0.455 0.37,0.825 0.826,0.825 l 105.722,0 c 0.427,0 0.779,-0.32 0.821,-0.744 l 8.33,-84.608 c 0.041,-0.417 -0.237,-0.798 -0.645,-0.887 L 0.196,0.023 C 0.126,0.008 0.062,0 0,0"
               inkscape:connector-curvature="0" /></g><g
             transform="translate(1294.4174,2692.533)"
             id="g172"><path
               id="path174"
               style="fill:#515154;fill-opacity:1;fill-rule:nonzero;stroke:none"
               d="m 0,0 -105.722,0 c -5.151,0 -9.326,-4.175 -9.326,-9.325 l 0,-109.586 c 0,-5.26 4.295,-9.329 9.306,-9.329 0.662,0 1.336,0.071 2.015,0.219 l 114.051,24.978 c 4.618,1.012 7.749,5.319 7.286,10.023 L 9.28,-8.412 C 8.811,-3.638 4.796,0 0,0 m -6.956,-17 6.979,-70.896 -98.071,-21.478 0,92.374 91.092,0"
               inkscape:connector-curvature="0" /></g><g
             transform="translate(1366.4319,2601.3955)"
             id="g176"><path
               id="path178"
               style="fill:#c8d5b9;fill-opacity:1;fill-rule:nonzero;stroke:none"
               d="M 0,0 -177,-28 -71,33 -71,182 0,194 0,0 z"
               inkscape:connector-curvature="0" /></g><g
             transform="translate(1305.4323,2774.9436)"
             id="g180"><path
               id="path182"
               style="fill:#515154;fill-opacity:1;fill-rule:nonzero;stroke:none"
               d="m 0,0 0,-140.548 c 0,-3.578 -1.911,-6.883 -5.013,-8.668 L -64.088,-183.212 51,-165.006 51,8.62 0,0 z m -116.006,-211.549 c -4.179,0 -7.994,2.626 -9.423,6.671 -1.606,4.546 0.262,9.592 4.442,11.997 L -20,-134.766 -20,8.452 c 0,4.88 3.521,9.047 8.333,9.86 l 71,12 c 2.91,0.49 5.875,-0.323 8.122,-2.223 C 69.703,26.189 71,23.395 71,20.452 l 0,-194 c 0,-4.92 -3.578,-9.109 -8.437,-9.877 l -177.001,-28 c -0.526,-0.083 -1.049,-0.124 -1.568,-0.124"
               inkscape:connector-curvature="0" /></g><g
             transform="translate(285.4318,2601.3955)"
             id="g184"><path
               id="path186"
               style="fill:#c8d5b9;fill-opacity:1;fill-rule:nonzero;stroke:none"
               d="M 0,0 177,-28 71,33 71,182 0,194 0,0 z"
               inkscape:connector-curvature="0" /></g><g
             transform="translate(295.4317,2609.9377)"
             id="g188"><path
               id="path190"
               style="fill:#515154;fill-opacity:1;fill-rule:nonzero;stroke:none"
               d="M 0,0 115.087,-18.206 56.012,15.79 C 52.911,17.575 51,20.88 51,24.458 L 51,165.006 0,173.625 0,0 z m 167.006,-46.543 c -0.519,0 -1.042,0.041 -1.569,0.124 l -177,28 c -4.859,0.768 -8.437,4.957 -8.437,9.877 l 0,194 c 0,2.943 1.297,5.737 3.545,7.637 2.248,1.9 5.218,2.713 8.122,2.223 l 71,-12 C 67.478,182.504 71,178.337 71,173.458 L 71,30.24 171.988,-27.875 c 4.18,-2.405 6.047,-7.451 4.441,-11.998 -1.429,-4.044 -5.245,-6.67 -9.423,-6.67"
               inkscape:connector-curvature="0" /></g><path
             id="path192"
             style="fill:#c8d5b9;fill-opacity:1;fill-rule:nonzero;stroke:none"
             d="m 1295.432,2634.396 -940,0 0,194 940,0 0,-194 z"
             inkscape:connector-curvature="0" /><path
             id="path194"
             style="fill:#515154;fill-opacity:1;fill-rule:nonzero;stroke:none"
             d="m 365.432,2644.395 920,0 0,174 -920,0 0,-174 z m 930,-20 -940,0 c -5.523,0 -10,4.477 -10,10 l 0,194 c 0,5.523 4.477,10 10,10 l 940,0 c 5.523,0 10,-4.477 10,-10 l 0,-194 c 0,-5.523 -4.477,-10 -10,-10"
             inkscape:connector-curvature="0" /></g></g><text
         id="text196"
         transform="matrix(1,0,0,-1,694.125,2547.7231)"><tspan
           id="tspan198"
           sodipodi:role="line"
           y="0"
           x="0 36 74.695 103.285 117.285 129.785 165.785 196.91499 227.845"
           style="font-size:50px;font-variant:normal;font-weight:300;font-stretch:normal;writing-mode:lr-tb;fill:#ffffff;fill-opacity:1;fill-rule:nonzero;stroke:none;font-family:Copperplate Gothic Light;-inkscape-font-specification:CopperplateGothic-Light">EST. 2015</tspan></text>
<text
         id="text200"
         transform="matrix(1,0,0,-1,467.4116,2742.7412)"><tspan
           id="tspan202"
           sodipodi:role="line"
           y="0"
           x="0 45.192001 110.232 178.87199 248.632 309.43201 366.07199 386.07199 454.71201 518.32001 586.71997 652"
           style="font-size:80px;font-variant:normal;font-weight:bold;font-stretch:normal;writing-mode:lr-tb;fill:#515154;fill-opacity:1;fill-rule:nonzero;stroke:none;font-family:Copperplate Gothic Bold;-inkscape-font-specification:CopperplateGothic-Bold">JAHNEL GROUP</tspan><tspan
           id="tspan204"
           sodipodi:role="line"
           y="76.959999"
           x="94.720001 159.2 220 280.79999 345.51999 365.51999 432.64001 488.70401 553.98401"
           style="font-size:80px;font-variant:normal;font-weight:bold;font-stretch:normal;writing-mode:lr-tb;fill:#515154;fill-opacity:1;fill-rule:nonzero;stroke:none;font-family:Copperplate Gothic Bold;-inkscape-font-specification:CopperplateGothic-Bold">BEER CLUB</tspan></text>
</g></g></svg>